<svg xmlns="http://www.w3.org/2000/svg" xmlns:xlink="http://www.w3.org/1999/xlink" version="1.1" x="0" y="0" viewBox="0 0 220.0 220.0" width="220.0" height="220.0" text-rendering="optimizeLegibility"><rect x="6" y="6" width="208" height="208" rx="14" stroke="#222222" fill="#FFFFFF" stroke-width="12"/><g transform="translate(25.0, 25.0)"><g shape-rendering="crispEdges" fill="#ff6600"><rect x="70.34655172413794" y="0.01" width="5.8613793103448275" height="5.8613793103448275" rx="0"></rect><rect x="93.79206896551725" y="0.01" width="5.8613793103448275" height="5.8613793103448275" rx="0"></rect><rect x="111.37620689655172" y="0.01" width="5.8613793103448275" height="5.8613793103448275" rx="0"></rect><rect x="117.23758620689655" y="0.01" width="5.8613793103448275" height="5.8613793103448275" rx="0"></rect><rect x="58.62379310344827" y="5.871379310344827" width="5.8613793103448275" height="5.8613793103448275" rx="0"></rect><rect x="70.34655172413794" y="5.871379310344827" width="5.8613793103448275" height="5.8613793103448275" rx="0"></rect><rect x="93.79206896551725" y="5.871379310344827" width="5.8613793103448275" height="5.8613793103448275" rx="0"></rect><rect x="99.65344827586208" y="5.871379310344827" width="5.8613793103448275" height="5.8613793103448275" rx="0"></rect><rect x="111.37620689655172" y="5.871379310344827" width="5.8613793103448275" height="5.8613793103448275" rx="0"></rect><rect x="46.90103448275862" y="11.732758620689655" width="5.8613793103448275" height="5.8613793103448275" rx="0"></rect><rect x="64.48517241379311" y="11.732758620689655" width="5.8613793103448275" height="5.8613793103448275" rx="0"></rect><rect x="82.06931034482758" y="11.732758620689655" width="5.8613793103448275" height="5.8613793103448275" rx="0"></rect><rect x="87.93068965517242" y="11.732758620689655" width="5.8613793103448275" height="5.8613793103448275" rx="0"></rect><rect x="99.65344827586208" y="11.732758620689655" width="5.8613793103448275" height="5.8613793103448275" rx="0"></rect><rect x="105.5148275862069" y="11.732758620689655" width="5.8613793103448275" height="5.8613793103448275" rx="0"></rect><rect x="52.76241379310345" y="17.594137931034485" width="5.8613793103448275" height="5.8613793103448275" rx="0"></rect><rect x="58.62379310344827" y="17.594137931034485" width="5.8613793103448275" height="5.8613793103448275" rx="0"></rect><rect x="70.34655172413794" y="17.594137931034485" width="5.8613793103448275" height="5.8613793103448275" rx="0"></rect><rect x="76.20793103448277" y="17.594137931034485" width="5.8613793103448275" height="5.8613793103448275" rx="0"></rect><rect x="87.93068965517242" y="17.594137931034485" width="5.8613793103448275" height="5.8613793103448275" rx="0"></rect><rect x="93.79206896551725" y="17.594137931034485" width="5.8613793103448275" height="5.8613793103448275" rx="0"></rect><rect x="105.5148275862069" y="17.594137931034485" width="5.8613793103448275" height="5.8613793103448275" rx="0"></rect><rect x="46.90103448275862" y="23.45551724137931" width="5.8613793103448275" height="5.8613793103448275" rx="0"></rect><rect x="52.76241379310345" y="23.45551724137931" width="5.8613793103448275" height="5.8613793103448275" rx="0"></rect><rect x="64.48517241379311" y="23.45551724137931" width="5.8613793103448275" height="5.8613793103448275" rx="0"></rect><rect x="76.20793103448277" y="23.45551724137931" width="5.8613793103448275" height="5.8613793103448275" rx="0"></rect><rect x="87.93068965517242" y="23.45551724137931" width="5.8613793103448275" height="5.8613793103448275" rx="0"></rect><rect x="99.65344827586208" y="23.45551724137931" width="5.8613793103448275" height="5.8613793103448275" rx="0"></rect><rect x="46.90103448275862" y="29.316896551724138" width="5.8613793103448275" height="5.8613793103448275" rx="0"></rect><rect x="58.62379310344827" y="29.316896551724138" width="5.8613793103448275" height="5.8613793103448275" rx="0"></rect><rect x="64.48517241379311" y="29.316896551724138" width="5.8613793103448275" height="5.8613793103448275" rx="0"></rect><rect x="82.06931034482758" y="29.316896551724138" width="5.8613793103448275" height="5.8613793103448275" rx="0"></rect><rect x="87.93068965517242" y="29.316896551724138" width="5.8613793103448275" height="5.8613793103448275" rx="0"></rect><rect x="99.65344827586208" y="29.316896551724138" width="5.8613793103448275" height="5.8613793103448275" rx="0"></rect><rect x="111.37620689655172" y="29.316896551724138" width="5.8613793103448275" height="5.8613793103448275" rx="0"></rect><rect x="117.23758620689655" y="29.316896551724138" width="5.8613793103448275" height="5.8613793103448275" rx="0"></rect><rect x="46.90103448275862" y="35.178275862068965" width="5.8613793103448275" height="5.8613793103448275" rx="0"></rect><rect x="58.62379310344827" y="35.178275862068965" width="5.8613793103448275" height="5.8613793103448275" rx="0"></rect><rect x="70.34655172413794" y="35.178275862068965" width="5.8613793103448275" height="5.8613793103448275" rx="0"></rect><rect x="82.06931034482758" y="35.178275862068965" width="5.8613793103448275" height="5.8613793103448275" rx="0"></rect><rect x="93.79206896551725" y="35.178275862068965" width="5.8613793103448275" height="5.8613793103448275" rx="0"></rect><rect x="105.5148275862069" y="35.178275862068965" width="5.8613793103448275" height="5.8613793103448275" rx="0"></rect><rect x="117.23758620689655" y="35.178275862068965" width="5.8613793103448275" height="5.8613793103448275" rx="0"></rect><rect x="52.76241379310345" y="41.03965517241379" width="5.8613793103448275" height="5.8613793103448275" rx="0"></rect><rect x="82.06931034482758" y="41.03965517241379" width="5.8613793103448275" height="5.8613793103448275" rx="0"></rect><rect x="87.93068965517242" y="41.03965517241379" width="5.8613793103448275" height="5.8613793103448275" rx="0"></rect><rect x="5.871379310344827" y="46.90103448275862" width="5.8613793103448275" height="5.8613793103448275" rx="0"></rect><rect x="23.45551724137931" y="46.90103448275862" width="5.8613793103448275" height="5.8613793103448275" rx="0"></rect><rect x="35.178275862068965" y="46.90103448275862" width="5.8613793103448275" height="5.8613793103448275" rx="0"></rect><rect x="46.90103448275862" y="46.90103448275862" width="5.8613793103448275" height="5.8613793103448275" rx="0"></rect><rect x="64.48517241379311" y="46.90103448275862" width="5.8613793103448275" height="5.8613793103448275" rx="0"></rect><rect x="70.34655172413794" y="46.90103448275862" width="5.8613793103448275" height="5.8613793103448275" rx="0"></rect><rect x="76.20793103448277" y="46.90103448275862" width="5.8613793103448275" height="5.8613793103448275" rx="0"></rect><rect x="82.06931034482758" y="46.90103448275862" width="5.8613793103448275" height="5.8613793103448275" rx="0"></rect><rect x="111.37620689655172" y="46.90103448275862" width="5.8613793103448275" height="5.8613793103448275" rx="0"></rect><rect x="117.23758620689655" y="46.90103448275862" width="5.8613793103448275" height="5.8613793103448275" rx="0"></rect><rect x="123.09896551724138" y="46.90103448275862" width="5.8613793103448275" height="5.8613793103448275" rx="0"></rect><rect x="134.82172413793103" y="46.90103448275862" width="5.8613793103448275" height="5.8613793103448275" rx="0"></rect><rect x="140.68310344827586" y="46.90103448275862" width="5.8613793103448275" height="5.8613793103448275" rx="0"></rect><rect x="152.40586206896552" y="46.90103448275862" width="5.8613793103448275" height="5.8613793103448275" rx="0"></rect><rect x="23.45551724137931" y="52.76241379310345" width="5.8613793103448275" height="5.8613793103448275" rx="0"></rect><rect x="29.316896551724138" y="52.76241379310345" width="5.8613793103448275" height="5.8613793103448275" rx="0"></rect><rect x="46.90103448275862" y="52.76241379310345" width="5.8613793103448275" height="5.8613793103448275" rx="0"></rect><rect x="58.62379310344827" y="52.76241379310345" width="5.8613793103448275" height="5.8613793103448275" rx="0"></rect><rect x="76.20793103448277" y="52.76241379310345" width="5.8613793103448275" height="5.8613793103448275" rx="0"></rect><rect x="82.06931034482758" y="52.76241379310345" width="5.8613793103448275" height="5.8613793103448275" rx="0"></rect><rect x="93.79206896551725" y="52.76241379310345" width="5.8613793103448275" height="5.8613793103448275" rx="0"></rect><rect x="105.5148275862069" y="52.76241379310345" width="5.8613793103448275" height="5.8613793103448275" rx="0"></rect><rect x="111.37620689655172" y="52.76241379310345" width="5.8613793103448275" height="5.8613793103448275" rx="0"></rect><rect x="128.9603448275862" y="52.76241379310345" width="5.8613793103448275" height="5.8613793103448275" rx="0"></rect><rect x="134.82172413793103" y="52.76241379310345" width="5.8613793103448275" height="5.8613793103448275" rx="0"></rect><rect x="140.68310344827586" y="52.76241379310345" width="5.8613793103448275" height="5.8613793103448275" rx="0"></rect><rect x="152.40586206896552" y="52.76241379310345" width="5.8613793103448275" height="5.8613793103448275" rx="0"></rect><rect x="158.26724137931032" y="52.76241379310345" width="5.8613793103448275" height="5.8613793103448275" rx="0"></rect><rect x="164.12862068965515" y="52.76241379310345" width="5.8613793103448275" height="5.8613793103448275" rx="0"></rect><rect x="0.01" y="58.62379310344827" width="5.8613793103448275" height="5.8613793103448275" rx="0"></rect><rect x="11.732758620689655" y="58.62379310344827" width="5.8613793103448275" height="5.8613793103448275" rx="0"></rect><rect x="17.594137931034485" y="58.62379310344827" width="5.8613793103448275" height="5.8613793103448275" rx="0"></rect><rect x="23.45551724137931" y="58.62379310344827" width="5.8613793103448275" height="5.8613793103448275" rx="0"></rect><rect x="29.316896551724138" y="58.62379310344827" width="5.8613793103448275" height="5.8613793103448275" rx="0"></rect><rect x="35.178275862068965" y="58.62379310344827" width="5.8613793103448275" height="5.8613793103448275" rx="0"></rect><rect x="52.76241379310345" y="58.62379310344827" width="5.8613793103448275" height="5.8613793103448275" rx="0"></rect><rect x="58.62379310344827" y="58.62379310344827" width="5.8613793103448275" height="5.8613793103448275" rx="0"></rect><rect x="70.34655172413794" y="58.62379310344827" width="5.8613793103448275" height="5.8613793103448275" rx="0"></rect><rect x="76.20793103448277" y="58.62379310344827" width="5.8613793103448275" height="5.8613793103448275" rx="0"></rect><rect x="99.65344827586208" y="58.62379310344827" width="5.8613793103448275" height="5.8613793103448275" rx="0"></rect><rect x="105.5148275862069" y="58.62379310344827" width="5.8613793103448275" height="5.8613793103448275" rx="0"></rect><rect x="111.37620689655172" y="58.62379310344827" width="5.8613793103448275" height="5.8613793103448275" rx="0"></rect><rect x="123.09896551724138" y="58.62379310344827" width="5.8613793103448275" height="5.8613793103448275" rx="0"></rect><rect x="134.82172413793103" y="58.62379310344827" width="5.8613793103448275" height="5.8613793103448275" rx="0"></rect><rect x="140.68310344827586" y="58.62379310344827" width="5.8613793103448275" height="5.8613793103448275" rx="0"></rect><rect x="146.5444827586207" y="58.62379310344827" width="5.8613793103448275" height="5.8613793103448275" rx="0"></rect><rect x="164.12862068965515" y="58.62379310344827" width="5.8613793103448275" height="5.8613793103448275" rx="0"></rect><rect x="17.594137931034485" y="64.48517241379311" width="5.8613793103448275" height="5.8613793103448275" rx="0"></rect><rect x="23.45551724137931" y="64.48517241379311" width="5.8613793103448275" height="5.8613793103448275" rx="0"></rect><rect x="29.316896551724138" y="64.48517241379311" width="5.8613793103448275" height="5.8613793103448275" rx="0"></rect><rect x="46.90103448275862" y="64.48517241379311" width="5.8613793103448275" height="5.8613793103448275" rx="0"></rect><rect x="87.93068965517242" y="64.48517241379311" width="5.8613793103448275" height="5.8613793103448275" rx="0"></rect><rect x="99.65344827586208" y="64.48517241379311" width="5.8613793103448275" height="5.8613793103448275" rx="0"></rect><rect x="111.37620689655172" y="64.48517241379311" width="5.8613793103448275" height="5.8613793103448275" rx="0"></rect><rect x="117.23758620689655" y="64.48517241379311" width="5.8613793103448275" height="5.8613793103448275" rx="0"></rect><rect x="123.09896551724138" y="64.48517241379311" width="5.8613793103448275" height="5.8613793103448275" rx="0"></rect><rect x="140.68310344827586" y="64.48517241379311" width="5.8613793103448275" height="5.8613793103448275" rx="0"></rect><rect x="146.5444827586207" y="64.48517241379311" width="5.8613793103448275" height="5.8613793103448275" rx="0"></rect><rect x="158.26724137931032" y="64.48517241379311" width="5.8613793103448275" height="5.8613793103448275" rx="0"></rect><rect x="164.12862068965515" y="64.48517241379311" width="5.8613793103448275" height="5.8613793103448275" rx="0"></rect><rect x="5.871379310344827" y="70.34655172413794" width="5.8613793103448275" height="5.8613793103448275" rx="0"></rect><rect x="11.732758620689655" y="70.34655172413794" width="5.8613793103448275" height="5.8613793103448275" rx="0"></rect><rect x="35.178275862068965" y="70.34655172413794" width="5.8613793103448275" height="5.8613793103448275" rx="0"></rect><rect x="41.03965517241379" y="70.34655172413794" width="5.8613793103448275" height="5.8613793103448275" rx="0"></rect><rect x="58.62379310344827" y="70.34655172413794" width="5.8613793103448275" height="5.8613793103448275" rx="0"></rect><rect x="64.48517241379311" y="70.34655172413794" width="5.8613793103448275" height="5.8613793103448275" rx="0"></rect><rect x="70.34655172413794" y="70.34655172413794" width="5.8613793103448275" height="5.8613793103448275" rx="0"></rect><rect x="87.93068965517242" y="70.34655172413794" width="5.8613793103448275" height="5.8613793103448275" rx="0"></rect><rect x="93.79206896551725" y="70.34655172413794" width="5.8613793103448275" height="5.8613793103448275" rx="0"></rect><rect x="99.65344827586208" y="70.34655172413794" width="5.8613793103448275" height="5.8613793103448275" rx="0"></rect><rect x="134.82172413793103" y="70.34655172413794" width="5.8613793103448275" height="5.8613793103448275" rx="0"></rect><rect x="164.12862068965515" y="70.34655172413794" width="5.8613793103448275" height="5.8613793103448275" rx="0"></rect><rect x="0.01" y="76.20793103448277" width="5.8613793103448275" height="5.8613793103448275" rx="0"></rect><rect x="5.871379310344827" y="76.20793103448277" width="5.8613793103448275" height="5.8613793103448275" rx="0"></rect><rect x="11.732758620689655" y="76.20793103448277" width="5.8613793103448275" height="5.8613793103448275" rx="0"></rect><rect x="17.594137931034485" y="76.20793103448277" width="5.8613793103448275" height="5.8613793103448275" rx="0"></rect><rect x="29.316896551724138" y="76.20793103448277" width="5.8613793103448275" height="5.8613793103448275" rx="0"></rect><rect x="46.90103448275862" y="76.20793103448277" width="5.8613793103448275" height="5.8613793103448275" rx="0"></rect><rect x="64.48517241379311" y="76.20793103448277" width="5.8613793103448275" height="5.8613793103448275" rx="0"></rect><rect x="76.20793103448277" y="76.20793103448277" width="5.8613793103448275" height="5.8613793103448275" rx="0"></rect><rect x="82.06931034482758" y="76.20793103448277" width="5.8613793103448275" height="5.8613793103448275" rx="0"></rect><rect x="105.5148275862069" y="76.20793103448277" width="5.8613793103448275" height="5.8613793103448275" rx="0"></rect><rect x="128.9603448275862" y="76.20793103448277" width="5.8613793103448275" height="5.8613793103448275" rx="0"></rect><rect x="140.68310344827586" y="76.20793103448277" width="5.8613793103448275" height="5.8613793103448275" rx="0"></rect><rect x="152.40586206896552" y="76.20793103448277" width="5.8613793103448275" height="5.8613793103448275" rx="0"></rect><rect x="164.12862068965515" y="76.20793103448277" width="5.8613793103448275" height="5.8613793103448275" rx="0"></rect><rect x="0.01" y="82.06931034482758" width="5.8613793103448275" height="5.8613793103448275" rx="0"></rect><rect x="5.871379310344827" y="82.06931034482758" width="5.8613793103448275" height="5.8613793103448275" rx="0"></rect><rect x="11.732758620689655" y="82.06931034482758" width="5.8613793103448275" height="5.8613793103448275" rx="0"></rect><rect x="17.594137931034485" y="82.06931034482758" width="5.8613793103448275" height="5.8613793103448275" rx="0"></rect><rect x="29.316896551724138" y="82.06931034482758" width="5.8613793103448275" height="5.8613793103448275" rx="0"></rect><rect x="35.178275862068965" y="82.06931034482758" width="5.8613793103448275" height="5.8613793103448275" rx="0"></rect><rect x="41.03965517241379" y="82.06931034482758" width="5.8613793103448275" height="5.8613793103448275" rx="0"></rect><rect x="52.76241379310345" y="82.06931034482758" width="5.8613793103448275" height="5.8613793103448275" rx="0"></rect><rect x="58.62379310344827" y="82.06931034482758" width="5.8613793103448275" height="5.8613793103448275" rx="0"></rect><rect x="64.48517241379311" y="82.06931034482758" width="5.8613793103448275" height="5.8613793103448275" rx="0"></rect><rect x="70.34655172413794" y="82.06931034482758" width="5.8613793103448275" height="5.8613793103448275" rx="0"></rect><rect x="76.20793103448277" y="82.06931034482758" width="5.8613793103448275" height="5.8613793103448275" rx="0"></rect><rect x="99.65344827586208" y="82.06931034482758" width="5.8613793103448275" height="5.8613793103448275" rx="0"></rect><rect x="123.09896551724138" y="82.06931034482758" width="5.8613793103448275" height="5.8613793103448275" rx="0"></rect><rect x="128.9603448275862" y="82.06931034482758" width="5.8613793103448275" height="5.8613793103448275" rx="0"></rect><rect x="140.68310344827586" y="82.06931034482758" width="5.8613793103448275" height="5.8613793103448275" rx="0"></rect><rect x="164.12862068965515" y="82.06931034482758" width="5.8613793103448275" height="5.8613793103448275" rx="0"></rect><rect x="17.594137931034485" y="87.93068965517242" width="5.8613793103448275" height="5.8613793103448275" rx="0"></rect><rect x="23.45551724137931" y="87.93068965517242" width="5.8613793103448275" height="5.8613793103448275" rx="0"></rect><rect x="29.316896551724138" y="87.93068965517242" width="5.8613793103448275" height="5.8613793103448275" rx="0"></rect><rect x="52.76241379310345" y="87.93068965517242" width="5.8613793103448275" height="5.8613793103448275" rx="0"></rect><rect x="82.06931034482758" y="87.93068965517242" width="5.8613793103448275" height="5.8613793103448275" rx="0"></rect><rect x="93.79206896551725" y="87.93068965517242" width="5.8613793103448275" height="5.8613793103448275" rx="0"></rect><rect x="99.65344827586208" y="87.93068965517242" width="5.8613793103448275" height="5.8613793103448275" rx="0"></rect><rect x="105.5148275862069" y="87.93068965517242" width="5.8613793103448275" height="5.8613793103448275" rx="0"></rect><rect x="117.23758620689655" y="87.93068965517242" width="5.8613793103448275" height="5.8613793103448275" rx="0"></rect><rect x="128.9603448275862" y="87.93068965517242" width="5.8613793103448275" height="5.8613793103448275" rx="0"></rect><rect x="134.82172413793103" y="87.93068965517242" width="5.8613793103448275" height="5.8613793103448275" rx="0"></rect><rect x="146.5444827586207" y="87.93068965517242" width="5.8613793103448275" height="5.8613793103448275" rx="0"></rect><rect x="158.26724137931032" y="87.93068965517242" width="5.8613793103448275" height="5.8613793103448275" rx="0"></rect><rect x="0.01" y="93.79206896551725" width="5.8613793103448275" height="5.8613793103448275" rx="0"></rect><rect x="11.732758620689655" y="93.79206896551725" width="5.8613793103448275" height="5.8613793103448275" rx="0"></rect><rect x="17.594137931034485" y="93.79206896551725" width="5.8613793103448275" height="5.8613793103448275" rx="0"></rect><rect x="23.45551724137931" y="93.79206896551725" width="5.8613793103448275" height="5.8613793103448275" rx="0"></rect><rect x="35.178275862068965" y="93.79206896551725" width="5.8613793103448275" height="5.8613793103448275" rx="0"></rect><rect x="41.03965517241379" y="93.79206896551725" width="5.8613793103448275" height="5.8613793103448275" rx="0"></rect><rect x="52.76241379310345" y="93.79206896551725" width="5.8613793103448275" height="5.8613793103448275" rx="0"></rect><rect x="70.34655172413794" y="93.79206896551725" width="5.8613793103448275" height="5.8613793103448275" rx="0"></rect><rect x="76.20793103448277" y="93.79206896551725" width="5.8613793103448275" height="5.8613793103448275" rx="0"></rect><rect x="82.06931034482758" y="93.79206896551725" width="5.8613793103448275" height="5.8613793103448275" rx="0"></rect><rect x="105.5148275862069" y="93.79206896551725" width="5.8613793103448275" height="5.8613793103448275" rx="0"></rect><rect x="111.37620689655172" y="93.79206896551725" width="5.8613793103448275" height="5.8613793103448275" rx="0"></rect><rect x="117.23758620689655" y="93.79206896551725" width="5.8613793103448275" height="5.8613793103448275" rx="0"></rect><rect x="123.09896551724138" y="93.79206896551725" width="5.8613793103448275" height="5.8613793103448275" rx="0"></rect><rect x="158.26724137931032" y="93.79206896551725" width="5.8613793103448275" height="5.8613793103448275" rx="0"></rect><rect x="164.12862068965515" y="93.79206896551725" width="5.8613793103448275" height="5.8613793103448275" rx="0"></rect><rect x="0.01" y="99.65344827586208" width="5.8613793103448275" height="5.8613793103448275" rx="0"></rect><rect x="11.732758620689655" y="99.65344827586208" width="5.8613793103448275" height="5.8613793103448275" rx="0"></rect><rect x="46.90103448275862" y="99.65344827586208" width="5.8613793103448275" height="5.8613793103448275" rx="0"></rect><rect x="70.34655172413794" y="99.65344827586208" width="5.8613793103448275" height="5.8613793103448275" rx="0"></rect><rect x="76.20793103448277" y="99.65344827586208" width="5.8613793103448275" height="5.8613793103448275" rx="0"></rect><rect x="82.06931034482758" y="99.65344827586208" width="5.8613793103448275" height="5.8613793103448275" rx="0"></rect><rect x="93.79206896551725" y="99.65344827586208" width="5.8613793103448275" height="5.8613793103448275" rx="0"></rect><rect x="99.65344827586208" y="99.65344827586208" width="5.8613793103448275" height="5.8613793103448275" rx="0"></rect><rect x="111.37620689655172" y="99.65344827586208" width="5.8613793103448275" height="5.8613793103448275" rx="0"></rect><rect x="117.23758620689655" y="99.65344827586208" width="5.8613793103448275" height="5.8613793103448275" rx="0"></rect><rect x="123.09896551724138" y="99.65344827586208" width="5.8613793103448275" height="5.8613793103448275" rx="0"></rect><rect x="128.9603448275862" y="99.65344827586208" width="5.8613793103448275" height="5.8613793103448275" rx="0"></rect><rect x="140.68310344827586" y="99.65344827586208" width="5.8613793103448275" height="5.8613793103448275" rx="0"></rect><rect x="146.5444827586207" y="99.65344827586208" width="5.8613793103448275" height="5.8613793103448275" rx="0"></rect><rect x="164.12862068965515" y="99.65344827586208" width="5.8613793103448275" height="5.8613793103448275" rx="0"></rect><rect x="11.732758620689655" y="105.5148275862069" width="5.8613793103448275" height="5.8613793103448275" rx="0"></rect><rect x="17.594137931034485" y="105.5148275862069" width="5.8613793103448275" height="5.8613793103448275" rx="0"></rect><rect x="35.178275862068965" y="105.5148275862069" width="5.8613793103448275" height="5.8613793103448275" rx="0"></rect><rect x="41.03965517241379" y="105.5148275862069" width="5.8613793103448275" height="5.8613793103448275" rx="0"></rect><rect x="58.62379310344827" y="105.5148275862069" width="5.8613793103448275" height="5.8613793103448275" rx="0"></rect><rect x="70.34655172413794" y="105.5148275862069" width="5.8613793103448275" height="5.8613793103448275" rx="0"></rect><rect x="82.06931034482758" y="105.5148275862069" width="5.8613793103448275" height="5.8613793103448275" rx="0"></rect><rect x="93.79206896551725" y="105.5148275862069" width="5.8613793103448275" height="5.8613793103448275" rx="0"></rect><rect x="99.65344827586208" y="105.5148275862069" width="5.8613793103448275" height="5.8613793103448275" rx="0"></rect><rect x="140.68310344827586" y="105.5148275862069" width="5.8613793103448275" height="5.8613793103448275" rx="0"></rect><rect x="164.12862068965515" y="105.5148275862069" width="5.8613793103448275" height="5.8613793103448275" rx="0"></rect><rect x="41.03965517241379" y="111.37620689655172" width="5.8613793103448275" height="5.8613793103448275" rx="0"></rect><rect x="58.62379310344827" y="111.37620689655172" width="5.8613793103448275" height="5.8613793103448275" rx="0"></rect><rect x="76.20793103448277" y="111.37620689655172" width="5.8613793103448275" height="5.8613793103448275" rx="0"></rect><rect x="82.06931034482758" y="111.37620689655172" width="5.8613793103448275" height="5.8613793103448275" rx="0"></rect><rect x="99.65344827586208" y="111.37620689655172" width="5.8613793103448275" height="5.8613793103448275" rx="0"></rect><rect x="105.5148275862069" y="111.37620689655172" width="5.8613793103448275" height="5.8613793103448275" rx="0"></rect><rect x="140.68310344827586" y="111.37620689655172" width="5.8613793103448275" height="5.8613793103448275" rx="0"></rect><rect x="146.5444827586207" y="111.37620689655172" width="5.8613793103448275" height="5.8613793103448275" rx="0"></rect><rect x="164.12862068965515" y="111.37620689655172" width="5.8613793103448275" height="5.8613793103448275" rx="0"></rect><rect x="0.01" y="117.23758620689655" width="5.8613793103448275" height="5.8613793103448275" rx="0"></rect><rect x="5.871379310344827" y="117.23758620689655" width="5.8613793103448275" height="5.8613793103448275" rx="0"></rect><rect x="17.594137931034485" y="117.23758620689655" width="5.8613793103448275" height="5.8613793103448275" rx="0"></rect><rect x="29.316896551724138" y="117.23758620689655" width="5.8613793103448275" height="5.8613793103448275" rx="0"></rect><rect x="35.178275862068965" y="117.23758620689655" width="5.8613793103448275" height="5.8613793103448275" rx="0"></rect><rect x="64.48517241379311" y="117.23758620689655" width="5.8613793103448275" height="5.8613793103448275" rx="0"></rect><rect x="76.20793103448277" y="117.23758620689655" width="5.8613793103448275" height="5.8613793103448275" rx="0"></rect><rect x="87.93068965517242" y="117.23758620689655" width="5.8613793103448275" height="5.8613793103448275" rx="0"></rect><rect x="93.79206896551725" y="117.23758620689655" width="5.8613793103448275" height="5.8613793103448275" rx="0"></rect><rect x="99.65344827586208" y="117.23758620689655" width="5.8613793103448275" height="5.8613793103448275" rx="0"></rect><rect x="111.37620689655172" y="117.23758620689655" width="5.8613793103448275" height="5.8613793103448275" rx="0"></rect><rect x="117.23758620689655" y="117.23758620689655" width="5.8613793103448275" height="5.8613793103448275" rx="0"></rect><rect x="123.09896551724138" y="117.23758620689655" width="5.8613793103448275" height="5.8613793103448275" rx="0"></rect><rect x="128.9603448275862" y="117.23758620689655" width="5.8613793103448275" height="5.8613793103448275" rx="0"></rect><rect x="134.82172413793103" y="117.23758620689655" width="5.8613793103448275" height="5.8613793103448275" rx="0"></rect><rect x="140.68310344827586" y="117.23758620689655" width="5.8613793103448275" height="5.8613793103448275" rx="0"></rect><rect x="164.12862068965515" y="117.23758620689655" width="5.8613793103448275" height="5.8613793103448275" rx="0"></rect><rect x="46.90103448275862" y="123.09896551724138" width="5.8613793103448275" height="5.8613793103448275" rx="0"></rect><rect x="52.76241379310345" y="123.09896551724138" width="5.8613793103448275" height="5.8613793103448275" rx="0"></rect><rect x="70.34655172413794" y="123.09896551724138" width="5.8613793103448275" height="5.8613793103448275" rx="0"></rect><rect x="87.93068965517242" y="123.09896551724138" width="5.8613793103448275" height="5.8613793103448275" rx="0"></rect><rect x="93.79206896551725" y="123.09896551724138" width="5.8613793103448275" height="5.8613793103448275" rx="0"></rect><rect x="99.65344827586208" y="123.09896551724138" width="5.8613793103448275" height="5.8613793103448275" rx="0"></rect><rect x="105.5148275862069" y="123.09896551724138" width="5.8613793103448275" height="5.8613793103448275" rx="0"></rect><rect x="117.23758620689655" y="123.09896551724138" width="5.8613793103448275" height="5.8613793103448275" rx="0"></rect><rect x="140.68310344827586" y="123.09896551724138" width="5.8613793103448275" height="5.8613793103448275" rx="0"></rect><rect x="152.40586206896552" y="123.09896551724138" width="5.8613793103448275" height="5.8613793103448275" rx="0"></rect><rect x="164.12862068965515" y="123.09896551724138" width="5.8613793103448275" height="5.8613793103448275" rx="0"></rect><rect x="64.48517241379311" y="128.9603448275862" width="5.8613793103448275" height="5.8613793103448275" rx="0"></rect><rect x="70.34655172413794" y="128.9603448275862" width="5.8613793103448275" height="5.8613793103448275" rx="0"></rect><rect x="76.20793103448277" y="128.9603448275862" width="5.8613793103448275" height="5.8613793103448275" rx="0"></rect><rect x="87.93068965517242" y="128.9603448275862" width="5.8613793103448275" height="5.8613793103448275" rx="0"></rect><rect x="105.5148275862069" y="128.9603448275862" width="5.8613793103448275" height="5.8613793103448275" rx="0"></rect><rect x="111.37620689655172" y="128.9603448275862" width="5.8613793103448275" height="5.8613793103448275" rx="0"></rect><rect x="117.23758620689655" y="128.9603448275862" width="5.8613793103448275" height="5.8613793103448275" rx="0"></rect><rect x="128.9603448275862" y="128.9603448275862" width="5.8613793103448275" height="5.8613793103448275" rx="0"></rect><rect x="140.68310344827586" y="128.9603448275862" width="5.8613793103448275" height="5.8613793103448275" rx="0"></rect><rect x="158.26724137931032" y="128.9603448275862" width="5.8613793103448275" height="5.8613793103448275" rx="0"></rect><rect x="164.12862068965515" y="128.9603448275862" width="5.8613793103448275" height="5.8613793103448275" rx="0"></rect><rect x="58.62379310344827" y="134.82172413793103" width="5.8613793103448275" height="5.8613793103448275" rx="0"></rect><rect x="64.48517241379311" y="134.82172413793103" width="5.8613793103448275" height="5.8613793103448275" rx="0"></rect><rect x="76.20793103448277" y="134.82172413793103" width="5.8613793103448275" height="5.8613793103448275" rx="0"></rect><rect x="87.93068965517242" y="134.82172413793103" width="5.8613793103448275" height="5.8613793103448275" rx="0"></rect><rect x="111.37620689655172" y="134.82172413793103" width="5.8613793103448275" height="5.8613793103448275" rx="0"></rect><rect x="117.23758620689655" y="134.82172413793103" width="5.8613793103448275" height="5.8613793103448275" rx="0"></rect><rect x="140.68310344827586" y="134.82172413793103" width="5.8613793103448275" height="5.8613793103448275" rx="0"></rect><rect x="146.5444827586207" y="134.82172413793103" width="5.8613793103448275" height="5.8613793103448275" rx="0"></rect><rect x="46.90103448275862" y="140.68310344827586" width="5.8613793103448275" height="5.8613793103448275" rx="0"></rect><rect x="82.06931034482758" y="140.68310344827586" width="5.8613793103448275" height="5.8613793103448275" rx="0"></rect><rect x="93.79206896551725" y="140.68310344827586" width="5.8613793103448275" height="5.8613793103448275" rx="0"></rect><rect x="111.37620689655172" y="140.68310344827586" width="5.8613793103448275" height="5.8613793103448275" rx="0"></rect><rect x="117.23758620689655" y="140.68310344827586" width="5.8613793103448275" height="5.8613793103448275" rx="0"></rect><rect x="123.09896551724138" y="140.68310344827586" width="5.8613793103448275" height="5.8613793103448275" rx="0"></rect><rect x="128.9603448275862" y="140.68310344827586" width="5.8613793103448275" height="5.8613793103448275" rx="0"></rect><rect x="134.82172413793103" y="140.68310344827586" width="5.8613793103448275" height="5.8613793103448275" rx="0"></rect><rect x="140.68310344827586" y="140.68310344827586" width="5.8613793103448275" height="5.8613793103448275" rx="0"></rect><rect x="52.76241379310345" y="146.5444827586207" width="5.8613793103448275" height="5.8613793103448275" rx="0"></rect><rect x="58.62379310344827" y="146.5444827586207" width="5.8613793103448275" height="5.8613793103448275" rx="0"></rect><rect x="64.48517241379311" y="146.5444827586207" width="5.8613793103448275" height="5.8613793103448275" rx="0"></rect><rect x="76.20793103448277" y="146.5444827586207" width="5.8613793103448275" height="5.8613793103448275" rx="0"></rect><rect x="82.06931034482758" y="146.5444827586207" width="5.8613793103448275" height="5.8613793103448275" rx="0"></rect><rect x="99.65344827586208" y="146.5444827586207" width="5.8613793103448275" height="5.8613793103448275" rx="0"></rect><rect x="105.5148275862069" y="146.5444827586207" width="5.8613793103448275" height="5.8613793103448275" rx="0"></rect><rect x="134.82172413793103" y="146.5444827586207" width="5.8613793103448275" height="5.8613793103448275" rx="0"></rect><rect x="146.5444827586207" y="146.5444827586207" width="5.8613793103448275" height="5.8613793103448275" rx="0"></rect><rect x="152.40586206896552" y="146.5444827586207" width="5.8613793103448275" height="5.8613793103448275" rx="0"></rect><rect x="158.26724137931032" y="146.5444827586207" width="5.8613793103448275" height="5.8613793103448275" rx="0"></rect><rect x="64.48517241379311" y="152.40586206896552" width="5.8613793103448275" height="5.8613793103448275" rx="0"></rect><rect x="70.34655172413794" y="152.40586206896552" width="5.8613793103448275" height="5.8613793103448275" rx="0"></rect><rect x="87.93068965517242" y="152.40586206896552" width="5.8613793103448275" height="5.8613793103448275" rx="0"></rect><rect x="99.65344827586208" y="152.40586206896552" width="5.8613793103448275" height="5.8613793103448275" rx="0"></rect><rect x="105.5148275862069" y="152.40586206896552" width="5.8613793103448275" height="5.8613793103448275" rx="0"></rect><rect x="111.37620689655172" y="152.40586206896552" width="5.8613793103448275" height="5.8613793103448275" rx="0"></rect><rect x="117.23758620689655" y="152.40586206896552" width="5.8613793103448275" height="5.8613793103448275" rx="0"></rect><rect x="123.09896551724138" y="152.40586206896552" width="5.8613793103448275" height="5.8613793103448275" rx="0"></rect><rect x="158.26724137931032" y="152.40586206896552" width="5.8613793103448275" height="5.8613793103448275" rx="0"></rect><rect x="164.12862068965515" y="152.40586206896552" width="5.8613793103448275" height="5.8613793103448275" rx="0"></rect><rect x="46.90103448275862" y="158.26724137931032" width="5.8613793103448275" height="5.8613793103448275" rx="0"></rect><rect x="58.62379310344827" y="158.26724137931032" width="5.8613793103448275" height="5.8613793103448275" rx="0"></rect><rect x="70.34655172413794" y="158.26724137931032" width="5.8613793103448275" height="5.8613793103448275" rx="0"></rect><rect x="76.20793103448277" y="158.26724137931032" width="5.8613793103448275" height="5.8613793103448275" rx="0"></rect><rect x="82.06931034482758" y="158.26724137931032" width="5.8613793103448275" height="5.8613793103448275" rx="0"></rect><rect x="87.93068965517242" y="158.26724137931032" width="5.8613793103448275" height="5.8613793103448275" rx="0"></rect><rect x="93.79206896551725" y="158.26724137931032" width="5.8613793103448275" height="5.8613793103448275" rx="0"></rect><rect x="99.65344827586208" y="158.26724137931032" width="5.8613793103448275" height="5.8613793103448275" rx="0"></rect><rect x="105.5148275862069" y="158.26724137931032" width="5.8613793103448275" height="5.8613793103448275" rx="0"></rect><rect x="111.37620689655172" y="158.26724137931032" width="5.8613793103448275" height="5.8613793103448275" rx="0"></rect><rect x="117.23758620689655" y="158.26724137931032" width="5.8613793103448275" height="5.8613793103448275" rx="0"></rect><rect x="123.09896551724138" y="158.26724137931032" width="5.8613793103448275" height="5.8613793103448275" rx="0"></rect><rect x="128.9603448275862" y="158.26724137931032" width="5.8613793103448275" height="5.8613793103448275" rx="0"></rect><rect x="134.82172413793103" y="158.26724137931032" width="5.8613793103448275" height="5.8613793103448275" rx="0"></rect><rect x="146.5444827586207" y="158.26724137931032" width="5.8613793103448275" height="5.8613793103448275" rx="0"></rect><rect x="158.26724137931032" y="158.26724137931032" width="5.8613793103448275" height="5.8613793103448275" rx="0"></rect><rect x="164.12862068965515" y="158.26724137931032" width="5.8613793103448275" height="5.8613793103448275" rx="0"></rect><rect x="52.76241379310345" y="164.12862068965515" width="5.8613793103448275" height="5.8613793103448275" rx="0"></rect><rect x="64.48517241379311" y="164.12862068965515" width="5.8613793103448275" height="5.8613793103448275" rx="0"></rect><rect x="76.20793103448277" y="164.12862068965515" width="5.8613793103448275" height="5.8613793103448275" rx="0"></rect><rect x="82.06931034482758" y="164.12862068965515" width="5.8613793103448275" height="5.8613793103448275" rx="0"></rect><rect x="99.65344827586208" y="164.12862068965515" width="5.8613793103448275" height="5.8613793103448275" rx="0"></rect><rect x="117.23758620689655" y="164.12862068965515" width="5.8613793103448275" height="5.8613793103448275" rx="0"></rect><rect x="140.68310344827586" y="164.12862068965515" width="5.8613793103448275" height="5.8613793103448275" rx="0"></rect><rect x="146.5444827586207" y="164.12862068965515" width="5.8613793103448275" height="5.8613793103448275" rx="0"></rect><rect x="158.26724137931032" y="164.12862068965515" width="5.8613793103448275" height="5.8613793103448275" rx="0"></rect></g><g shape-rendering="geometricPrecision"><rect x="2.9306896551724138" y="2.9306896551724138" width="35.16827586206897" fill="none" height="35.16827586206897" stroke-width="5.8613793103448275" stroke="#ff6600" rx="5.8613793103448275"></rect><rect x="11.722758620689655" y="11.722758620689655" width="17.584137931034483" fill="#ff6600" height="17.584137931034483" rx="2.9306896551724138"></rect><rect x="131.90103448275863" y="2.9306896551724138" width="35.16827586206897" fill="none" height="35.16827586206897" stroke-width="5.8613793103448275" stroke="#ff6600" rx="5.8613793103448275"></rect><rect x="140.69310344827585" y="11.722758620689655" width="17.584137931034483" fill="#ff6600" height="17.584137931034483" rx="2.9306896551724138"></rect><rect x="2.9306896551724138" y="131.90103448275863" width="35.16827586206897" fill="none" height="35.16827586206897" stroke-width="5.8613793103448275" stroke="#ff6600" rx="5.8613793103448275"></rect><rect x="11.722758620689655" y="140.69310344827585" width="17.584137931034483" fill="#ff6600" height="17.584137931034483" rx="2.9306896551724138"></rect></g></g></svg>